<?xml version="1.0" standalone="no"?>
<!DOCTYPE svg PUBLIC "-//W3C//DTD SVG 20010904//EN"
 "http://www.w3.org/TR/2001/REC-SVG-20010904/DTD/svg10.dtd">
<svg version="1.0" xmlns="http://www.w3.org/2000/svg"
 width="2160.000000pt" height="2160.000000pt" viewBox="0 0 2160.000000 2160.000000"
 preserveAspectRatio="xMidYMid meet">
<metadata>
Created by potrace 1.14, written by Peter Selinger 2001-2017
</metadata>
<g transform="translate(0.000000,2160.000000) scale(0.100000,-0.100000)"
fill="#000000" stroke="none">
<path d="M12865 17100 c-257 -7 -288 -10 -460 -36 -244 -38 -355 -79 -455
-169 -107 -96 -413 -156 -1125 -220 -160 -14 -206 -21 -315 -47 -42 -9 -67
-16 -180 -48 -80 -23 -244 -92 -285 -121 -58 -39 -163 -153 -220 -238 -80
-118 -145 -160 -247 -161 -52 0 -155 28 -183 51 -27 20 -122 49 -193 58 -135
17 -228 -9 -392 -108 -19 -11 -41 -24 -48 -27 -13 -6 -83 -78 -170 -172 -23
-26 -68 -87 -98 -137 -79 -127 -100 -153 -142 -174 -48 -25 -214 -44 -300 -36
-66 6 -167 31 -187 46 -26 19 -142 31 -243 26 -144 -8 -242 -37 -349 -104 -29
-18 -56 -33 -62 -33 -5 0 -11 -4 -13 -8 -1 -5 -64 -51 -138 -104 -137 -97
-226 -175 -272 -238 -36 -50 -91 -172 -118 -260 -33 -111 -52 -148 -108 -216
-57 -68 -87 -83 -217 -109 -157 -31 -304 -87 -406 -153 -180 -116 -279 -320
-279 -571 0 -135 22 -226 76 -322 18 -33 34 -62 34 -64 0 -8 100 -152 124
-179 14 -16 26 -36 26 -45 -1 -21 -15 -164 -40 -401 -12 -107 -26 -242 -31
-300 -24 -253 -29 -306 -49 -495 -12 -110 -25 -247 -30 -305 -6 -58 -12 -121
-15 -140 -3 -19 -9 -82 -15 -140 -5 -58 -17 -170 -25 -250 -8 -80 -17 -172
-20 -205 -3 -33 -11 -101 -16 -151 -10 -81 -9 -96 7 -129 10 -21 35 -49 56
-64 36 -25 172 -119 283 -196 28 -20 172 -120 320 -225 149 -104 298 -208 333
-232 34 -24 68 -47 75 -53 7 -5 32 -23 57 -40 64 -43 593 -413 605 -423 6 -4
39 -27 75 -51 36 -24 92 -63 125 -87 33 -25 177 -126 320 -226 143 -100 302
-211 353 -247 51 -36 100 -70 109 -76 9 -5 165 -114 347 -242 182 -127 375
-262 429 -300 166 -115 214 -149 457 -320 129 -91 291 -204 360 -251 69 -47
199 -138 290 -201 91 -64 191 -134 223 -156 179 -124 195 -135 257 -181 19
-14 71 -50 115 -80 44 -30 126 -88 182 -127 108 -76 425 -297 616 -430 62 -43
121 -87 133 -98 11 -10 23 -19 27 -19 4 0 128 -84 275 -188 317 -223 290 -204
388 -271 44 -30 192 -134 329 -231 138 -97 287 -202 333 -233 183 -127 248
-172 497 -346 143 -100 304 -213 358 -252 123 -89 170 -105 243 -84 62 18 66
22 185 210 189 299 215 340 252 394 25 37 51 100 78 186 23 72 56 175 74 230
18 55 51 161 75 235 23 74 57 180 75 235 18 55 52 161 75 235 23 74 48 153 55
175 8 22 46 141 85 265 39 124 76 235 81 248 13 32 11 74 -7 188 -8 54 -21
140 -29 189 -7 50 -18 119 -24 155 -14 86 -37 236 -51 335 -6 44 -18 121 -25
170 -33 205 -46 293 -85 545 -22 146 -46 306 -55 355 -8 50 -21 137 -30 195
-9 58 -32 206 -51 330 -19 124 -39 257 -44 295 -5 39 -12 79 -14 90 -3 11 -12
70 -21 130 -8 61 -22 153 -31 205 -8 52 -21 136 -29 185 -18 111 -49 310 -80
520 -36 242 -83 549 -100 655 -8 52 -19 122 -24 155 -81 522 -102 653 -111
730 -5 39 -12 79 -14 90 -3 11 -19 112 -36 225 -16 113 -35 232 -40 265 -6 33
-26 164 -45 290 -19 127 -39 257 -45 290 -5 33 -16 105 -25 160 -8 55 -24 156
-34 225 -11 69 -29 188 -41 265 -11 77 -27 178 -35 225 -7 47 -19 119 -25 160
-35 229 -62 406 -75 490 -8 52 -19 124 -25 160 -117 776 -121 803 -146 837
l-24 32 23 28 c64 78 94 157 108 283 12 105 6 167 -21 220 -21 40 -127 160
-142 160 -5 0 -22 9 -36 19 -33 23 -168 65 -277 86 -101 20 -339 25 -660 15z"/>
</g>
</svg>
